<?xml version="1.0" encoding="UTF-8" standalone="no"?>
<!-- Created with Inkscape (http://www.inkscape.org/) -->

<svg
   xmlns:dc="http://purl.org/dc/elements/1.1/"
   xmlns:cc="http://creativecommons.org/ns#"
   xmlns:rdf="http://www.w3.org/1999/02/22-rdf-syntax-ns#"
   xmlns:svg="http://www.w3.org/2000/svg"
   xmlns="http://www.w3.org/2000/svg"
   xmlns:sodipodi="http://sodipodi.sourceforge.net/DTD/sodipodi-0.dtd"
   xmlns:inkscape="http://www.inkscape.org/namespaces/inkscape"
   width="744.09448819"
   height="1052.3622047"
   id="svg2"
   version="1.1"
   inkscape:version="0.48.5 r10040"
   inkscape:export-filename="C:\Users\Stan\Desktop\bitmap.png"
   inkscape:export-xdpi="90"
   inkscape:export-ydpi="90"
   sodipodi:docname="New document 1">
  <defs
     id="defs4" />
  <sodipodi:namedview
     id="base"
     pagecolor="#ffffff"
     bordercolor="#666666"
     borderopacity="1.0"
     inkscape:pageopacity="0.0"
     inkscape:pageshadow="2"
     inkscape:zoom="0.35355339"
     inkscape:cx="-65.192203"
     inkscape:cy="1037.9342"
     inkscape:document-units="px"
     inkscape:current-layer="layer1"
     showgrid="false"
     inkscape:window-width="1600"
     inkscape:window-height="847"
     inkscape:window-x="-6"
     inkscape:window-y="-6"
     inkscape:window-maximized="1" />
  <metadata
     id="metadata7">
    <rdf:RDF>
      <cc:Work
         rdf:about="">
        <dc:format>image/svg+xml</dc:format>
        <dc:type
           rdf:resource="http://purl.org/dc/dcmitype/StillImage" />
        <dc:title></dc:title>
      </cc:Work>
    </rdf:RDF>
  </metadata>
  <g
     inkscape:label="Layer 1"
     inkscape:groupmode="layer"
     id="layer1">
    <path
       sodipodi:type="arc"
       style="fill:none;stroke:#000000;stroke-width:20;stroke-miterlimit:4;stroke-dasharray:none"
       id="path3755"
       sodipodi:cx="164"
       sodipodi:cy="410.36218"
       sodipodi:rx="89"
       sodipodi:ry="89"
       d="m 253,410.36218 a 89,89 0 1 1 -178,0 89,89 0 1 1 178,0 z"
       transform="translate(-65,67)" />
    <text
       xml:space="preserve"
       style="font-size:144px;font-style:normal;font-variant:normal;font-weight:normal;font-stretch:normal;text-align:start;line-height:125%;letter-spacing:0px;word-spacing:0px;writing-mode:lr-tb;text-anchor:start;fill:#000000;fill-opacity:1;stroke:none;font-family:Bitter;-inkscape-font-specification:Bitter"
       x="204"
       y="517.36218"
       id="text3757"
       sodipodi:linespacing="125%"><tspan
         sodipodi:role="line"
         id="tspan3759"
         x="204"
         y="517.36218">Canyon</tspan></text>
    <path
       style="fill:#000000;stroke:#000000;stroke-width:12.5;stroke-linecap:butt;stroke-linejoin:miter;stroke-miterlimit:4;stroke-opacity:1;stroke-dasharray:none"
       d="m 91.941695,391.39735 c 15.818245,3.14748 8.215825,16.23906 7.600415,27.62663 l 2.91115,-4.00655 c -0.52551,5.81189 -2.551384,11.12365 -1.30231,17.52707 l 4.45512,-0.11862 c -5.917867,5.68064 -8.07333,20.98805 -12.414375,30.61076 l 5.261568,-4.25 c -11.216944,12.19122 -16.718987,29.54515 -29.069406,35.83711 -7.201661,9.5515 -7.04649,15.01588 -8.604627,21.43209 2.222718,0.0261 5.474255,0.56661 6.511567,0 -0.648942,12.61787 1.420848,16.17329 2.604627,22.68209 1.087465,-1.07379 2.169327,-2.13078 3.906941,-5.15502 0.477828,11.57799 0.868209,16.49607 1.302313,24.7441 0,0 -135.170295,-86.10539 16.837017,-166.92966 z"
       id="path3761"
       inkscape:connector-curvature="0"
       sodipodi:nodetypes="cccccccccccccc" />
  </g>
</svg>
